<svg width="247" height="117" viewBox="0 0 247 117" fill="none" xmlns="http://www.w3.org/2000/svg">
<line x1="17" y1="43" x2="4" y2="43" stroke="#3182CE" stroke-width="2" stroke-linecap="round"/>
<line x1="18.6497" y1="42.7439" x2="82.7439" y2="22.3503" stroke="#3182CE" stroke-width="2" stroke-linecap="round"/>
<line x1="86.0727" y1="21.0784" x2="150.078" y2="25.9273" stroke="#3182CE" stroke-width="2" stroke-linecap="round"/>
<line x1="153.199" y1="26.2505" x2="216.25" y2="40.8008" stroke="#3182CE" stroke-width="2" stroke-linecap="round"/>
<line x1="217.67" y1="39.7548" x2="235.755" y2="34.3295" stroke="#3182CE" stroke-width="2" stroke-linecap="round"/>
<circle cx="20" cy="43" r="4.5" fill="#121212" stroke="white"/>
<circle cx="85" cy="22" r="4.5" fill="#121212" stroke="white"/>
<circle cx="151" cy="26" r="4.5" fill="#121212" stroke="white"/>
<circle cx="217" cy="41" r="4.5" fill="#121212" stroke="white"/>
<path d="M6.64 92.416V98H5.52V94.368L4.024 98H3.176L1.672 94.368V98H0.552V92.416H1.824L3.6 96.568L5.376 92.416H6.64ZM9.71531 98.072C9.28865 98.072 8.90465 97.9787 8.56331 97.792C8.22198 97.6 7.95265 97.3307 7.75531 96.984C7.56331 96.6373 7.46731 96.2373 7.46731 95.784C7.46731 95.3307 7.56598 94.9307 7.76331 94.584C7.96598 94.2373 8.24065 93.9707 8.58731 93.784C8.93398 93.592 9.32065 93.496 9.74731 93.496C10.174 93.496 10.5606 93.592 10.9073 93.784C11.254 93.9707 11.526 94.2373 11.7233 94.584C11.926 94.9307 12.0273 95.3307 12.0273 95.784C12.0273 96.2373 11.9233 96.6373 11.7153 96.984C11.5126 97.3307 11.2353 97.6 10.8833 97.792C10.5366 97.9787 10.1473 98.072 9.71531 98.072ZM9.71531 97.096C9.91798 97.096 10.1073 97.048 10.2833 96.952C10.4646 96.8507 10.6086 96.7013 10.7153 96.504C10.822 96.3067 10.8753 96.0667 10.8753 95.784C10.8753 95.3627 10.7633 95.04 10.5393 94.816C10.3206 94.5867 10.0513 94.472 9.73131 94.472C9.41131 94.472 9.14198 94.5867 8.92331 94.816C8.70998 95.04 8.60331 95.3627 8.60331 95.784C8.60331 96.2053 8.70731 96.5307 8.91531 96.76C9.12865 96.984 9.39531 97.096 9.71531 97.096ZM13.9689 94.256C14.1129 94.0213 14.2995 93.8373 14.5289 93.704C14.7635 93.5707 15.0302 93.504 15.3289 93.504V94.68H15.0329C14.6809 94.68 14.4142 94.7627 14.2329 94.928C14.0569 95.0933 13.9689 95.3813 13.9689 95.792V98H12.8489V93.568H13.9689V94.256ZM18.5393 93.504C19.0673 93.504 19.4939 93.672 19.8193 94.008C20.1446 94.3387 20.3073 94.8027 20.3073 95.4V98H19.1873V95.552C19.1873 95.2 19.0993 94.9307 18.9233 94.744C18.7473 94.552 18.5073 94.456 18.2033 94.456C17.8939 94.456 17.6486 94.552 17.4673 94.744C17.2913 94.9307 17.2033 95.2 17.2033 95.552V98H16.0833V93.568H17.2033V94.12C17.3526 93.928 17.5419 93.7787 17.7713 93.672C18.0059 93.56 18.2619 93.504 18.5393 93.504ZM21.9403 93.04C21.743 93.04 21.5776 92.9787 21.4443 92.856C21.3163 92.728 21.2523 92.5707 21.2523 92.384C21.2523 92.1973 21.3163 92.0427 21.4443 91.92C21.5776 91.792 21.743 91.728 21.9403 91.728C22.1376 91.728 22.3003 91.792 22.4283 91.92C22.5616 92.0427 22.6283 92.1973 22.6283 92.384C22.6283 92.5707 22.5616 92.728 22.4283 92.856C22.3003 92.9787 22.1376 93.04 21.9403 93.04ZM22.4923 93.568V98H21.3723V93.568H22.4923ZM26.0549 93.504C26.5829 93.504 27.0095 93.672 27.3349 94.008C27.6602 94.3387 27.8229 94.8027 27.8229 95.4V98H26.7029V95.552C26.7029 95.2 26.6149 94.9307 26.4389 94.744C26.2629 94.552 26.0229 94.456 25.7189 94.456C25.4095 94.456 25.1642 94.552 24.9829 94.744C24.8069 94.9307 24.7189 95.2 24.7189 95.552V98H23.5989V93.568H24.7189V94.12C24.8682 93.928 25.0575 93.7787 25.2869 93.672C25.5215 93.56 25.7775 93.504 26.0549 93.504ZM30.6239 93.496C30.9546 93.496 31.2453 93.5627 31.4959 93.696C31.7466 93.824 31.9439 93.992 32.0879 94.2V93.568H33.2159V98.032C33.2159 98.4427 33.1333 98.808 32.9679 99.128C32.8026 99.4533 32.5546 99.7093 32.2239 99.896C31.8933 100.088 31.4933 100.184 31.0239 100.184C30.3946 100.184 29.8773 100.037 29.4719 99.744C29.0719 99.4507 28.8453 99.0507 28.7919 98.544H29.9039C29.9626 98.7467 30.0879 98.9067 30.2799 99.024C30.4773 99.1467 30.7146 99.208 30.9919 99.208C31.3173 99.208 31.5813 99.1093 31.7839 98.912C31.9866 98.72 32.0879 98.4267 32.0879 98.032V97.344C31.9439 97.552 31.7439 97.7253 31.4879 97.864C31.2373 98.0027 30.9493 98.072 30.6239 98.072C30.2506 98.072 29.9093 97.976 29.5999 97.784C29.2906 97.592 29.0453 97.3227 28.8639 96.976C28.6879 96.624 28.5999 96.2213 28.5999 95.768C28.5999 95.32 28.6879 94.9227 28.8639 94.576C29.0453 94.2293 29.2879 93.9627 29.5919 93.776C29.9013 93.5893 30.2453 93.496 30.6239 93.496ZM32.0879 95.784C32.0879 95.512 32.0346 95.28 31.9279 95.088C31.8213 94.8907 31.6773 94.7413 31.4959 94.64C31.3146 94.5333 31.1199 94.48 30.9119 94.48C30.7039 94.48 30.5119 94.5307 30.3359 94.632C30.1599 94.7333 30.0159 94.8827 29.9039 95.08C29.7973 95.272 29.7439 95.5013 29.7439 95.768C29.7439 96.0347 29.7973 96.2693 29.9039 96.472C30.0159 96.6693 30.1599 96.8213 30.3359 96.928C30.5173 97.0347 30.7093 97.088 30.9119 97.088C31.1199 97.088 31.3146 97.0373 31.4959 96.936C31.6773 96.8293 31.8213 96.68 31.9279 96.488C32.0346 96.2907 32.0879 96.056 32.0879 95.784Z" fill="black"/>
<path d="M67.976 96.936H65.752L65.384 98H64.208L66.216 92.408H67.52L69.528 98H68.344L67.976 96.936ZM67.672 96.04L66.864 93.704L66.056 96.04H67.672ZM72.3106 94.488H71.5346V98H70.3986V94.488H69.8946V93.568H70.3986V93.344C70.3986 92.8 70.5532 92.4 70.8626 92.144C71.1719 91.888 71.6386 91.768 72.2626 91.784V92.728C71.9906 92.7227 71.8012 92.768 71.6946 92.864C71.5879 92.96 71.5346 93.1333 71.5346 93.384V93.568H72.3106V94.488ZM74.3404 94.488V96.632C74.3404 96.7813 74.375 96.8907 74.4444 96.96C74.519 97.024 74.6417 97.056 74.8124 97.056H75.3324V98H74.6284C73.6844 98 73.2124 97.5413 73.2124 96.624V94.488H72.6844V93.568H73.2124V92.472H74.3404V93.568H75.3324V94.488H74.3404ZM80.2579 95.688C80.2579 95.848 80.2473 95.992 80.2259 96.12H76.9859C77.0126 96.44 77.1246 96.6907 77.3219 96.872C77.5193 97.0533 77.7619 97.144 78.0499 97.144C78.4659 97.144 78.7619 96.9653 78.9379 96.608H80.1459C80.0179 97.0347 79.7726 97.3867 79.4099 97.664C79.0473 97.936 78.6019 98.072 78.0739 98.072C77.6473 98.072 77.2633 97.9787 76.9219 97.792C76.5859 97.6 76.3219 97.3307 76.1299 96.984C75.9433 96.6373 75.8499 96.2373 75.8499 95.784C75.8499 95.3253 75.9433 94.9227 76.1299 94.576C76.3166 94.2293 76.5779 93.9627 76.9139 93.776C77.2499 93.5893 77.6366 93.496 78.0739 93.496C78.4953 93.496 78.8713 93.5867 79.2019 93.768C79.5379 93.9493 79.7966 94.208 79.9779 94.544C80.1646 94.8747 80.2579 95.256 80.2579 95.688ZM79.0979 95.368C79.0926 95.08 78.9886 94.8507 78.7859 94.68C78.5833 94.504 78.3353 94.416 78.0419 94.416C77.7646 94.416 77.5299 94.5013 77.3379 94.672C77.1513 94.8373 77.0366 95.0693 76.9939 95.368H79.0979ZM82.1954 94.256C82.3394 94.0213 82.5261 93.8373 82.7554 93.704C82.9901 93.5707 83.2568 93.504 83.5554 93.504V94.68H83.2594C82.9074 94.68 82.6408 94.7627 82.4594 94.928C82.2834 95.0933 82.1954 95.3813 82.1954 95.792V98H81.0754V93.568H82.1954V94.256ZM86.7658 93.504C87.2938 93.504 87.7205 93.672 88.0458 94.008C88.3711 94.3387 88.5338 94.8027 88.5338 95.4V98H87.4138V95.552C87.4138 95.2 87.3258 94.9307 87.1498 94.744C86.9738 94.552 86.7338 94.456 86.4298 94.456C86.1205 94.456 85.8751 94.552 85.6938 94.744C85.5178 94.9307 85.4298 95.2 85.4298 95.552V98H84.3098V93.568H85.4298V94.12C85.5791 93.928 85.7685 93.7787 85.9978 93.672C86.2325 93.56 86.4885 93.504 86.7658 93.504ZM91.5669 98.072C91.1402 98.072 90.7562 97.9787 90.4149 97.792C90.0735 97.6 89.8042 97.3307 89.6069 96.984C89.4149 96.6373 89.3189 96.2373 89.3189 95.784C89.3189 95.3307 89.4175 94.9307 89.6149 94.584C89.8175 94.2373 90.0922 93.9707 90.4389 93.784C90.7855 93.592 91.1722 93.496 91.5989 93.496C92.0255 93.496 92.4122 93.592 92.7589 93.784C93.1055 93.9707 93.3775 94.2373 93.5749 94.584C93.7775 94.9307 93.8789 95.3307 93.8789 95.784C93.8789 96.2373 93.7749 96.6373 93.5669 96.984C93.3642 97.3307 93.0869 97.6 92.7349 97.792C92.3882 97.9787 91.9989 98.072 91.5669 98.072ZM91.5669 97.096C91.7695 97.096 91.9589 97.048 92.1349 96.952C92.3162 96.8507 92.4602 96.7013 92.5669 96.504C92.6735 96.3067 92.7269 96.0667 92.7269 95.784C92.7269 95.3627 92.6149 95.04 92.3909 94.816C92.1722 94.5867 91.9029 94.472 91.5829 94.472C91.2629 94.472 90.9935 94.5867 90.7749 94.816C90.5615 95.04 90.4549 95.3627 90.4549 95.784C90.4549 96.2053 90.5589 96.5307 90.7669 96.76C90.9802 96.984 91.2469 97.096 91.5669 97.096ZM96.6684 98.072C96.2418 98.072 95.8578 97.9787 95.5164 97.792C95.1751 97.6 94.9058 97.3307 94.7084 96.984C94.5164 96.6373 94.4204 96.2373 94.4204 95.784C94.4204 95.3307 94.5191 94.9307 94.7164 94.584C94.9191 94.2373 95.1938 93.9707 95.5404 93.784C95.8871 93.592 96.2738 93.496 96.7004 93.496C97.1271 93.496 97.5138 93.592 97.8604 93.784C98.2071 93.9707 98.4791 94.2373 98.6764 94.584C98.8791 94.9307 98.9804 95.3307 98.9804 95.784C98.9804 96.2373 98.8764 96.6373 98.6684 96.984C98.4658 97.3307 98.1884 97.6 97.8364 97.792C97.4898 97.9787 97.1004 98.072 96.6684 98.072ZM96.6684 97.096C96.8711 97.096 97.0604 97.048 97.2364 96.952C97.4178 96.8507 97.5618 96.7013 97.6684 96.504C97.7751 96.3067 97.8284 96.0667 97.8284 95.784C97.8284 95.3627 97.7164 95.04 97.4924 94.816C97.2738 94.5867 97.0044 94.472 96.6844 94.472C96.3644 94.472 96.0951 94.5867 95.8764 94.816C95.6631 95.04 95.5564 95.3627 95.5564 95.784C95.5564 96.2053 95.6604 96.5307 95.8684 96.76C96.0818 96.984 96.3484 97.096 96.6684 97.096ZM102.258 93.504C102.786 93.504 103.213 93.672 103.538 94.008C103.863 94.3387 104.026 94.8027 104.026 95.4V98H102.906V95.552C102.906 95.2 102.818 94.9307 102.642 94.744C102.466 94.552 102.226 94.456 101.922 94.456C101.613 94.456 101.367 94.552 101.186 94.744C101.01 94.9307 100.922 95.2 100.922 95.552V98H99.802V93.568H100.922V94.12C101.071 93.928 101.261 93.7787 101.49 93.672C101.725 93.56 101.981 93.504 102.258 93.504Z" fill="black"/>
<path d="M136.672 93.32V94.72H138.552V95.608H136.672V97.088H138.792V98H135.552V92.408H138.792V93.32H136.672ZM141.658 96.968L142.778 93.568H143.97L142.33 98H140.97L139.338 93.568H140.538L141.658 96.968ZM148.719 95.688C148.719 95.848 148.708 95.992 148.687 96.12H145.447C145.474 96.44 145.586 96.6907 145.783 96.872C145.98 97.0533 146.223 97.144 146.511 97.144C146.927 97.144 147.223 96.9653 147.399 96.608H148.607C148.479 97.0347 148.234 97.3867 147.871 97.664C147.508 97.936 147.063 98.072 146.535 98.072C146.108 98.072 145.724 97.9787 145.383 97.792C145.047 97.6 144.783 97.3307 144.591 96.984C144.404 96.6373 144.311 96.2373 144.311 95.784C144.311 95.3253 144.404 94.9227 144.591 94.576C144.778 94.2293 145.039 93.9627 145.375 93.776C145.711 93.5893 146.098 93.496 146.535 93.496C146.956 93.496 147.332 93.5867 147.663 93.768C147.999 93.9493 148.258 94.208 148.439 94.544C148.626 94.8747 148.719 95.256 148.719 95.688ZM147.559 95.368C147.554 95.08 147.45 94.8507 147.247 94.68C147.044 94.504 146.796 94.416 146.503 94.416C146.226 94.416 145.991 94.5013 145.799 94.672C145.612 94.8373 145.498 95.0693 145.455 95.368H147.559ZM151.992 93.504C152.52 93.504 152.947 93.672 153.272 94.008C153.598 94.3387 153.76 94.8027 153.76 95.4V98H152.64V95.552C152.64 95.2 152.552 94.9307 152.376 94.744C152.2 94.552 151.96 94.456 151.656 94.456C151.347 94.456 151.102 94.552 150.92 94.744C150.744 94.9307 150.656 95.2 150.656 95.552V98H149.536V93.568H150.656V94.12C150.806 93.928 150.995 93.7787 151.224 93.672C151.459 93.56 151.715 93.504 151.992 93.504ZM155.393 93.04C155.196 93.04 155.031 92.9787 154.897 92.856C154.769 92.728 154.705 92.5707 154.705 92.384C154.705 92.1973 154.769 92.0427 154.897 91.92C155.031 91.792 155.196 91.728 155.393 91.728C155.591 91.728 155.753 91.792 155.881 91.92C156.015 92.0427 156.081 92.1973 156.081 92.384C156.081 92.5707 156.015 92.728 155.881 92.856C155.753 92.9787 155.591 93.04 155.393 93.04ZM155.945 93.568V98H154.825V93.568H155.945ZM159.508 93.504C160.036 93.504 160.463 93.672 160.788 94.008C161.113 94.3387 161.276 94.8027 161.276 95.4V98H160.156V95.552C160.156 95.2 160.068 94.9307 159.892 94.744C159.716 94.552 159.476 94.456 159.172 94.456C158.863 94.456 158.617 94.552 158.436 94.744C158.26 94.9307 158.172 95.2 158.172 95.552V98H157.052V93.568H158.172V94.12C158.321 93.928 158.511 93.7787 158.74 93.672C158.975 93.56 159.231 93.504 159.508 93.504ZM164.077 93.496C164.408 93.496 164.698 93.5627 164.949 93.696C165.2 93.824 165.397 93.992 165.541 94.2V93.568H166.669V98.032C166.669 98.4427 166.586 98.808 166.421 99.128C166.256 99.4533 166.008 99.7093 165.677 99.896C165.346 100.088 164.946 100.184 164.477 100.184C163.848 100.184 163.33 100.037 162.925 99.744C162.525 99.4507 162.298 99.0507 162.245 98.544H163.357C163.416 98.7467 163.541 98.9067 163.733 99.024C163.93 99.1467 164.168 99.208 164.445 99.208C164.77 99.208 165.034 99.1093 165.237 98.912C165.44 98.72 165.541 98.4267 165.541 98.032V97.344C165.397 97.552 165.197 97.7253 164.941 97.864C164.69 98.0027 164.402 98.072 164.077 98.072C163.704 98.072 163.362 97.976 163.053 97.784C162.744 97.592 162.498 97.3227 162.317 96.976C162.141 96.624 162.053 96.2213 162.053 95.768C162.053 95.32 162.141 94.9227 162.317 94.576C162.498 94.2293 162.741 93.9627 163.045 93.776C163.354 93.5893 163.698 93.496 164.077 93.496ZM165.541 95.784C165.541 95.512 165.488 95.28 165.381 95.088C165.274 94.8907 165.13 94.7413 164.949 94.64C164.768 94.5333 164.573 94.48 164.365 94.48C164.157 94.48 163.965 94.5307 163.789 94.632C163.613 94.7333 163.469 94.8827 163.357 95.08C163.25 95.272 163.197 95.5013 163.197 95.768C163.197 96.0347 163.25 96.2693 163.357 96.472C163.469 96.6693 163.613 96.8213 163.789 96.928C163.97 97.0347 164.162 97.088 164.365 97.088C164.573 97.088 164.768 97.0373 164.949 96.936C165.13 96.8293 165.274 96.68 165.381 96.488C165.488 96.2907 165.541 96.056 165.541 95.784Z" fill="black"/>
<path d="M212.328 98H211.208L208.672 94.168V98H207.552V92.408H208.672L211.208 96.248V92.408H212.328V98ZM214.003 93.04C213.805 93.04 213.64 92.9787 213.507 92.856C213.379 92.728 213.315 92.5707 213.315 92.384C213.315 92.1973 213.379 92.0427 213.507 91.92C213.64 91.792 213.805 91.728 214.003 91.728C214.2 91.728 214.363 91.792 214.491 91.92C214.624 92.0427 214.691 92.1973 214.691 92.384C214.691 92.5707 214.624 92.728 214.491 92.856C214.363 92.9787 214.2 93.04 214.003 93.04ZM214.555 93.568V98H213.435V93.568H214.555ZM217.397 93.496C217.728 93.496 218.019 93.5627 218.269 93.696C218.52 93.824 218.717 93.992 218.861 94.2V93.568H219.989V98.032C219.989 98.4427 219.907 98.808 219.741 99.128C219.576 99.4533 219.328 99.7093 218.997 99.896C218.667 100.088 218.267 100.184 217.797 100.184C217.168 100.184 216.651 100.037 216.245 99.744C215.845 99.4507 215.619 99.0507 215.565 98.544H216.677C216.736 98.7467 216.861 98.9067 217.053 99.024C217.251 99.1467 217.488 99.208 217.765 99.208C218.091 99.208 218.355 99.1093 218.557 98.912C218.76 98.72 218.861 98.4267 218.861 98.032V97.344C218.717 97.552 218.517 97.7253 218.261 97.864C218.011 98.0027 217.723 98.072 217.397 98.072C217.024 98.072 216.683 97.976 216.373 97.784C216.064 97.592 215.819 97.3227 215.637 96.976C215.461 96.624 215.373 96.2213 215.373 95.768C215.373 95.32 215.461 94.9227 215.637 94.576C215.819 94.2293 216.061 93.9627 216.365 93.776C216.675 93.5893 217.019 93.496 217.397 93.496ZM218.861 95.784C218.861 95.512 218.808 95.28 218.701 95.088C218.595 94.8907 218.451 94.7413 218.269 94.64C218.088 94.5333 217.893 94.48 217.685 94.48C217.477 94.48 217.285 94.5307 217.109 94.632C216.933 94.7333 216.789 94.8827 216.677 95.08C216.571 95.272 216.517 95.5013 216.517 95.768C216.517 96.0347 216.571 96.2693 216.677 96.472C216.789 96.6693 216.933 96.8213 217.109 96.928C217.291 97.0347 217.483 97.088 217.685 97.088C217.893 97.088 218.088 97.0373 218.269 96.936C218.451 96.8293 218.595 96.68 218.701 96.488C218.808 96.2907 218.861 96.056 218.861 95.784ZM223.579 93.504C223.915 93.504 224.214 93.5787 224.475 93.728C224.737 93.872 224.939 94.088 225.083 94.376C225.233 94.6587 225.307 95 225.307 95.4V98H224.187V95.552C224.187 95.2 224.099 94.9307 223.923 94.744C223.747 94.552 223.507 94.456 223.203 94.456C222.894 94.456 222.649 94.552 222.467 94.744C222.291 94.9307 222.203 95.2 222.203 95.552V98H221.083V92.08H222.203V94.12C222.347 93.928 222.539 93.7787 222.779 93.672C223.019 93.56 223.286 93.504 223.579 93.504ZM227.676 94.488V96.632C227.676 96.7813 227.711 96.8907 227.78 96.96C227.855 97.024 227.978 97.056 228.148 97.056H228.668V98H227.964C227.02 98 226.548 97.5413 226.548 96.624V94.488H226.02V93.568H226.548V92.472H227.676V93.568H228.668V94.488H227.676Z" fill="black"/>
<path d="M7.776 112.736C8.288 112.309 8.696 111.955 9 111.672C9.304 111.384 9.55733 111.085 9.76 110.776C9.96267 110.467 10.064 110.163 10.064 109.864C10.064 109.592 10 109.379 9.872 109.224C9.744 109.069 9.54667 108.992 9.28 108.992C9.01333 108.992 8.808 109.083 8.664 109.264C8.52 109.44 8.44533 109.683 8.44 109.992H7.352C7.37333 109.352 7.56267 108.867 7.92 108.536C8.28267 108.205 8.74133 108.04 9.296 108.04C9.904 108.04 10.3707 108.203 10.696 108.528C11.0213 108.848 11.184 109.272 11.184 109.8C11.184 110.216 11.072 110.613 10.848 110.992C10.624 111.371 10.368 111.701 10.08 111.984C9.792 112.261 9.416 112.597 8.952 112.992H11.312V113.92H7.36V113.088L7.776 112.736ZM15.0418 109.624C14.9884 109.4 14.8951 109.232 14.7618 109.12C14.6338 109.008 14.4471 108.952 14.2018 108.952C13.8338 108.952 13.5618 109.101 13.3858 109.4C13.2151 109.693 13.1271 110.173 13.1218 110.84C13.2498 110.627 13.4364 110.461 13.6818 110.344C13.9271 110.221 14.1938 110.16 14.4818 110.16C14.8284 110.16 15.1351 110.235 15.4018 110.384C15.6684 110.533 15.8764 110.752 16.0258 111.04C16.1751 111.323 16.2498 111.664 16.2498 112.064C16.2498 112.443 16.1724 112.781 16.0178 113.08C15.8684 113.373 15.6471 113.603 15.3538 113.768C15.0604 113.933 14.7111 114.016 14.3058 114.016C13.7511 114.016 13.3138 113.893 12.9938 113.648C12.6791 113.403 12.4578 113.061 12.3298 112.624C12.2071 112.181 12.1458 111.637 12.1458 110.992C12.1458 110.016 12.3138 109.28 12.6497 108.784C12.9858 108.283 13.5164 108.032 14.2418 108.032C14.8018 108.032 15.2364 108.184 15.5458 108.488C15.8551 108.792 16.0338 109.171 16.0818 109.624H15.0418ZM14.2258 111.08C13.9431 111.08 13.7058 111.163 13.5138 111.328C13.3218 111.493 13.2258 111.733 13.2258 112.048C13.2258 112.363 13.3138 112.611 13.4898 112.792C13.6711 112.973 13.9244 113.064 14.2498 113.064C14.5378 113.064 14.7644 112.976 14.9298 112.8C15.1004 112.624 15.1858 112.387 15.1858 112.088C15.1858 111.779 15.1031 111.533 14.9378 111.352C14.7778 111.171 14.5404 111.08 14.2258 111.08ZM16.9269 109.784C16.9269 109.347 17.0709 109 17.3589 108.744C17.6523 108.488 18.0309 108.36 18.4949 108.36C18.9536 108.36 19.3269 108.491 19.6149 108.752C19.9029 109.008 20.0469 109.352 20.0469 109.784C20.0469 110.221 19.9003 110.571 19.6069 110.832C19.3189 111.093 18.9429 111.224 18.4789 111.224C18.0203 111.224 17.6469 111.093 17.3589 110.832C17.0709 110.571 16.9269 110.221 16.9269 109.784ZM19.1669 109.792C19.1669 109.531 19.1003 109.331 18.9669 109.192C18.8336 109.048 18.6709 108.976 18.4789 108.976C18.2923 108.976 18.1323 109.048 17.9989 109.192C17.8656 109.331 17.7989 109.531 17.7989 109.792C17.7989 110.048 17.8629 110.245 17.9909 110.384C18.1243 110.523 18.2869 110.592 18.4789 110.592C18.6656 110.592 18.8256 110.523 18.9589 110.384C19.0976 110.245 19.1669 110.048 19.1669 109.792ZM20.5456 111.2C20.5456 110.651 20.6683 110.16 20.9136 109.728C21.1643 109.291 21.503 108.952 21.9296 108.712C22.3616 108.467 22.8443 108.344 23.3776 108.344C24.0016 108.344 24.5483 108.504 25.0176 108.824C25.487 109.144 25.815 109.587 26.0016 110.152H24.7136C24.5856 109.885 24.4043 109.685 24.1696 109.552C23.9403 109.419 23.6736 109.352 23.3696 109.352C23.0443 109.352 22.7536 109.429 22.4976 109.584C22.247 109.733 22.0496 109.947 21.9056 110.224C21.767 110.501 21.6976 110.827 21.6976 111.2C21.6976 111.568 21.767 111.893 21.9056 112.176C22.0496 112.453 22.247 112.669 22.4976 112.824C22.7536 112.973 23.0443 113.048 23.3696 113.048C23.6736 113.048 23.9403 112.981 24.1696 112.848C24.4043 112.709 24.5856 112.507 24.7136 112.24H26.0016C25.815 112.811 25.487 113.256 25.0176 113.576C24.5536 113.891 24.007 114.048 23.3776 114.048C22.8443 114.048 22.3616 113.928 21.9296 113.688C21.503 113.443 21.1643 113.104 20.9136 112.672C20.6683 112.24 20.5456 111.749 20.5456 111.2Z" fill="black"/>
<path d="M76.44 109.704C76.4667 109.171 76.6533 108.76 77 108.472C77.352 108.179 77.8133 108.032 78.384 108.032C78.7733 108.032 79.1067 108.101 79.384 108.24C79.6613 108.373 79.8693 108.557 80.008 108.792C80.152 109.021 80.224 109.283 80.224 109.576C80.224 109.912 80.136 110.197 79.96 110.432C79.7893 110.661 79.584 110.816 79.344 110.896V110.928C79.6533 111.024 79.8933 111.195 80.064 111.44C80.24 111.685 80.328 112 80.328 112.384C80.328 112.704 80.2533 112.989 80.104 113.24C79.96 113.491 79.744 113.688 79.456 113.832C79.1733 113.971 78.832 114.04 78.432 114.04C77.8293 114.04 77.3387 113.888 76.96 113.584C76.5813 113.28 76.3813 112.832 76.36 112.24H77.448C77.4587 112.501 77.5467 112.712 77.712 112.872C77.8827 113.027 78.1147 113.104 78.408 113.104C78.68 113.104 78.888 113.029 79.032 112.88C79.1813 112.725 79.256 112.528 79.256 112.288C79.256 111.968 79.1547 111.739 78.952 111.6C78.7493 111.461 78.4347 111.392 78.008 111.392H77.776V110.472H78.008C78.7653 110.472 79.144 110.219 79.144 109.712C79.144 109.483 79.0747 109.304 78.936 109.176C78.8027 109.048 78.608 108.984 78.352 108.984C78.1013 108.984 77.9067 109.053 77.768 109.192C77.6347 109.325 77.5573 109.496 77.536 109.704H76.44ZM81.0771 109.2V108.168H83.0051V114H81.8531V109.2H81.0771ZM83.9035 109.784C83.9035 109.347 84.0475 109 84.3355 108.744C84.6288 108.488 85.0075 108.36 85.4715 108.36C85.9302 108.36 86.3035 108.491 86.5915 108.752C86.8795 109.008 87.0235 109.352 87.0235 109.784C87.0235 110.221 86.8768 110.571 86.5835 110.832C86.2955 111.093 85.9195 111.224 85.4555 111.224C84.9968 111.224 84.6235 111.093 84.3355 110.832C84.0475 110.571 83.9035 110.221 83.9035 109.784ZM86.1435 109.792C86.1435 109.531 86.0768 109.331 85.9435 109.192C85.8102 109.048 85.6475 108.976 85.4555 108.976C85.2688 108.976 85.1088 109.048 84.9755 109.192C84.8422 109.331 84.7755 109.531 84.7755 109.792C84.7755 110.048 84.8395 110.245 84.9675 110.384C85.1008 110.523 85.2635 110.592 85.4555 110.592C85.6422 110.592 85.8022 110.523 85.9355 110.384C86.0742 110.245 86.1435 110.048 86.1435 109.792ZM87.5222 111.2C87.5222 110.651 87.6449 110.16 87.8902 109.728C88.1409 109.291 88.4795 108.952 88.9062 108.712C89.3382 108.467 89.8209 108.344 90.3542 108.344C90.9782 108.344 91.5249 108.504 91.9942 108.824C92.4635 109.144 92.7915 109.587 92.9782 110.152H91.6902C91.5622 109.885 91.3809 109.685 91.1462 109.552C90.9169 109.419 90.6502 109.352 90.3462 109.352C90.0209 109.352 89.7302 109.429 89.4742 109.584C89.2235 109.733 89.0262 109.947 88.8822 110.224C88.7435 110.501 88.6742 110.827 88.6742 111.2C88.6742 111.568 88.7435 111.893 88.8822 112.176C89.0262 112.453 89.2235 112.669 89.4742 112.824C89.7302 112.973 90.0209 113.048 90.3462 113.048C90.6502 113.048 90.9169 112.981 91.1462 112.848C91.3809 112.709 91.5622 112.507 91.6902 112.24H92.9782C92.7915 112.811 92.4635 113.256 91.9942 113.576C91.5302 113.891 90.9835 114.048 90.3542 114.048C89.8209 114.048 89.3382 113.928 88.9062 113.688C88.4795 113.443 88.1409 113.104 87.8902 112.672C87.6449 112.24 87.5222 111.749 87.5222 111.2Z" fill="black"/>
<path d="M142.44 109.704C142.467 109.171 142.653 108.76 143 108.472C143.352 108.179 143.813 108.032 144.384 108.032C144.773 108.032 145.107 108.101 145.384 108.24C145.661 108.373 145.869 108.557 146.008 108.792C146.152 109.021 146.224 109.283 146.224 109.576C146.224 109.912 146.136 110.197 145.96 110.432C145.789 110.661 145.584 110.816 145.344 110.896V110.928C145.653 111.024 145.893 111.195 146.064 111.44C146.24 111.685 146.328 112 146.328 112.384C146.328 112.704 146.253 112.989 146.104 113.24C145.96 113.491 145.744 113.688 145.456 113.832C145.173 113.971 144.832 114.04 144.432 114.04C143.829 114.04 143.339 113.888 142.96 113.584C142.581 113.28 142.381 112.832 142.36 112.24H143.448C143.459 112.501 143.547 112.712 143.712 112.872C143.883 113.027 144.115 113.104 144.408 113.104C144.68 113.104 144.888 113.029 145.032 112.88C145.181 112.725 145.256 112.528 145.256 112.288C145.256 111.968 145.155 111.739 144.952 111.6C144.749 111.461 144.435 111.392 144.008 111.392H143.776V110.472H144.008C144.765 110.472 145.144 110.219 145.144 109.712C145.144 109.483 145.075 109.304 144.936 109.176C144.803 109.048 144.608 108.984 144.352 108.984C144.101 108.984 143.907 109.053 143.768 109.192C143.635 109.325 143.557 109.496 143.536 109.704H142.44ZM147.213 111.008C147.213 110.085 147.378 109.363 147.709 108.84C148.045 108.317 148.6 108.056 149.373 108.056C150.146 108.056 150.698 108.317 151.029 108.84C151.365 109.363 151.533 110.085 151.533 111.008C151.533 111.936 151.365 112.664 151.029 113.192C150.698 113.72 150.146 113.984 149.373 113.984C148.6 113.984 148.045 113.72 147.709 113.192C147.378 112.664 147.213 111.936 147.213 111.008ZM150.429 111.008C150.429 110.613 150.402 110.283 150.349 110.016C150.301 109.744 150.2 109.523 150.045 109.352C149.896 109.181 149.672 109.096 149.373 109.096C149.074 109.096 148.848 109.181 148.693 109.352C148.544 109.523 148.442 109.744 148.389 110.016C148.341 110.283 148.317 110.613 148.317 111.008C148.317 111.413 148.341 111.755 148.389 112.032C148.437 112.304 148.538 112.525 148.693 112.696C148.848 112.861 149.074 112.944 149.373 112.944C149.672 112.944 149.898 112.861 150.053 112.696C150.208 112.525 150.309 112.304 150.357 112.032C150.405 111.755 150.429 111.413 150.429 111.008ZM152.177 109.784C152.177 109.347 152.321 109 152.609 108.744C152.902 108.488 153.281 108.36 153.745 108.36C154.204 108.36 154.577 108.491 154.865 108.752C155.153 109.008 155.297 109.352 155.297 109.784C155.297 110.221 155.15 110.571 154.857 110.832C154.569 111.093 154.193 111.224 153.729 111.224C153.27 111.224 152.897 111.093 152.609 110.832C152.321 110.571 152.177 110.221 152.177 109.784ZM154.417 109.792C154.417 109.531 154.35 109.331 154.217 109.192C154.084 109.048 153.921 108.976 153.729 108.976C153.542 108.976 153.382 109.048 153.249 109.192C153.116 109.331 153.049 109.531 153.049 109.792C153.049 110.048 153.113 110.245 153.241 110.384C153.374 110.523 153.537 110.592 153.729 110.592C153.916 110.592 154.076 110.523 154.209 110.384C154.348 110.245 154.417 110.048 154.417 109.792ZM155.796 111.2C155.796 110.651 155.918 110.16 156.164 109.728C156.414 109.291 156.753 108.952 157.18 108.712C157.612 108.467 158.094 108.344 158.628 108.344C159.252 108.344 159.798 108.504 160.268 108.824C160.737 109.144 161.065 109.587 161.252 110.152H159.964C159.836 109.885 159.654 109.685 159.42 109.552C159.19 109.419 158.924 109.352 158.62 109.352C158.294 109.352 158.004 109.429 157.748 109.584C157.497 109.733 157.3 109.947 157.156 110.224C157.017 110.501 156.948 110.827 156.948 111.2C156.948 111.568 157.017 111.893 157.156 112.176C157.3 112.453 157.497 112.669 157.748 112.824C158.004 112.973 158.294 113.048 158.62 113.048C158.924 113.048 159.19 112.981 159.42 112.848C159.654 112.709 159.836 112.507 159.964 112.24H161.252C161.065 112.811 160.737 113.256 160.268 113.576C159.804 113.891 159.257 114.048 158.628 114.048C158.094 114.048 157.612 113.928 157.18 113.688C156.753 113.443 156.414 113.104 156.164 112.672C155.918 112.24 155.796 111.749 155.796 111.2Z" fill="black"/>
<path d="M208.776 112.736C209.288 112.309 209.696 111.955 210 111.672C210.304 111.384 210.557 111.085 210.76 110.776C210.963 110.467 211.064 110.163 211.064 109.864C211.064 109.592 211 109.379 210.872 109.224C210.744 109.069 210.547 108.992 210.28 108.992C210.013 108.992 209.808 109.083 209.664 109.264C209.52 109.44 209.445 109.683 209.44 109.992H208.352C208.373 109.352 208.563 108.867 208.92 108.536C209.283 108.205 209.741 108.04 210.296 108.04C210.904 108.04 211.371 108.203 211.696 108.528C212.021 108.848 212.184 109.272 212.184 109.8C212.184 110.216 212.072 110.613 211.848 110.992C211.624 111.371 211.368 111.701 211.08 111.984C210.792 112.261 210.416 112.597 209.952 112.992H212.312V113.92H208.36V113.088L208.776 112.736ZM216.73 109.016L214.602 114H213.466L215.61 109.144H212.874V108.184H216.73V109.016ZM217.193 109.784C217.193 109.347 217.337 109 217.625 108.744C217.918 108.488 218.297 108.36 218.761 108.36C219.219 108.36 219.593 108.491 219.881 108.752C220.169 109.008 220.313 109.352 220.313 109.784C220.313 110.221 220.166 110.571 219.873 110.832C219.585 111.093 219.209 111.224 218.745 111.224C218.286 111.224 217.913 111.093 217.625 110.832C217.337 110.571 217.193 110.221 217.193 109.784ZM219.433 109.792C219.433 109.531 219.366 109.331 219.233 109.192C219.099 109.048 218.937 108.976 218.745 108.976C218.558 108.976 218.398 109.048 218.265 109.192C218.131 109.331 218.065 109.531 218.065 109.792C218.065 110.048 218.129 110.245 218.257 110.384C218.39 110.523 218.553 110.592 218.745 110.592C218.931 110.592 219.091 110.523 219.225 110.384C219.363 110.245 219.433 110.048 219.433 109.792ZM220.811 111.2C220.811 110.651 220.934 110.16 221.179 109.728C221.43 109.291 221.769 108.952 222.195 108.712C222.627 108.467 223.11 108.344 223.643 108.344C224.267 108.344 224.814 108.504 225.283 108.824C225.753 109.144 226.081 109.587 226.267 110.152H224.979C224.851 109.885 224.67 109.685 224.435 109.552C224.206 109.419 223.939 109.352 223.635 109.352C223.31 109.352 223.019 109.429 222.763 109.584C222.513 109.733 222.315 109.947 222.171 110.224C222.033 110.501 221.963 110.827 221.963 111.2C221.963 111.568 222.033 111.893 222.171 112.176C222.315 112.453 222.513 112.669 222.763 112.824C223.019 112.973 223.31 113.048 223.635 113.048C223.939 113.048 224.206 112.981 224.435 112.848C224.67 112.709 224.851 112.507 224.979 112.24H226.267C226.081 112.811 225.753 113.256 225.283 113.576C224.819 113.891 224.273 114.048 223.643 114.048C223.11 114.048 222.627 113.928 222.195 113.688C221.769 113.443 221.43 113.104 221.179 112.672C220.934 112.24 220.811 111.749 220.811 111.2Z" fill="black"/>
</svg>
