<svg width="38" height="38" viewBox="0 0 38 38" fill="none" xmlns="http://www.w3.org/2000/svg">
<path fill-rule="evenodd" clip-rule="evenodd" d="M17.992 7.97777C17.4441 6.82318 17.936 5.44308 19.0906 4.89522L26.3239 1.46294C24.07 0.520544 21.5958 0 19 0C8.50659 0 0 8.50659 0 19C0 29.4934 8.50659 38 19 38C29.4934 38 38 29.4934 38 19C38 16.0219 37.3148 13.2038 36.0935 10.6948L31.0745 13.0763C29.9199 13.6242 28.5398 13.1323 27.992 11.9778C27.4441 10.8232 27.936 9.44308 29.0906 8.89522L33.5492 6.77958C32.8011 5.88996 31.973 5.06993 31.076 4.33059L21.0745 9.07634C19.9199 9.6242 18.5398 9.13235 17.992 7.97777Z" fill="#F4CC3E"/>
</svg>
