<svg width="210" height="39" viewBox="0 0 210 39" fill="none" xmlns="http://www.w3.org/2000/svg">
<path fill-rule="evenodd" clip-rule="evenodd" d="M17.992 7.97777C17.4441 6.82318 17.936 5.44308 19.0906 4.89522L26.3239 1.46294C24.07 0.520544 21.5958 0 19 0C8.50659 0 0 8.50659 0 19C0 29.4934 8.50659 38 19 38C29.4934 38 38 29.4934 38 19C38 16.0219 37.3148 13.2038 36.0935 10.6948L31.0745 13.0763C29.9199 13.6242 28.5398 13.1323 27.992 11.9778C27.4441 10.8232 27.936 9.44308 29.0906 8.89522L33.5492 6.77958C32.8011 5.88996 31.973 5.06993 31.076 4.33059L21.0745 9.07634C19.9199 9.6242 18.5398 9.13235 17.992 7.97777Z" fill="#F4CC3E"/>
<path d="M66.8141 7.664V30H62.3341V20.496H52.7661V30H48.2861V7.664H52.7661V16.848H62.3341V7.664H66.8141ZM87.7036 20.752C87.7036 21.392 87.661 21.968 87.5756 22.48H74.6156C74.7223 23.76 75.1703 24.7627 75.9596 25.488C76.749 26.2133 77.7196 26.576 78.8716 26.576C80.5356 26.576 81.7196 25.8613 82.4236 24.432H87.2556C86.7436 26.1387 85.7623 27.5467 84.3116 28.656C82.861 29.744 81.0796 30.288 78.9676 30.288C77.261 30.288 75.725 29.9147 74.3596 29.168C73.0156 28.4 71.9596 27.3227 71.1916 25.936C70.445 24.5493 70.0716 22.9493 70.0716 21.136C70.0716 19.3013 70.445 17.6907 71.1916 16.304C71.9383 14.9173 72.9836 13.8507 74.3276 13.104C75.6716 12.3573 77.2183 11.984 78.9676 11.984C80.653 11.984 82.157 12.3467 83.4796 13.072C84.8236 13.7973 85.8583 14.832 86.5836 16.176C87.3303 17.4987 87.7036 19.024 87.7036 20.752ZM83.0636 19.472C83.0423 18.32 82.6263 17.4027 81.8156 16.72C81.005 16.016 80.013 15.664 78.8396 15.664C77.7303 15.664 76.7916 16.0053 76.0236 16.688C75.277 17.3493 74.8183 18.2773 74.6476 19.472H83.0636ZM95.4536 6.32V30H90.9736V6.32H95.4536ZM104.36 6.32V30H99.8799V6.32H104.36ZM116.658 30.288C114.951 30.288 113.415 29.9147 112.05 29.168C110.685 28.4 109.607 27.3227 108.818 25.936C108.05 24.5493 107.666 22.9493 107.666 21.136C107.666 19.3227 108.061 17.7227 108.85 16.336C109.661 14.9493 110.759 13.8827 112.146 13.136C113.533 12.368 115.079 11.984 116.786 11.984C118.493 11.984 120.039 12.368 121.426 13.136C122.813 13.8827 123.901 14.9493 124.69 16.336C125.501 17.7227 125.906 19.3227 125.906 21.136C125.906 22.9493 125.49 24.5493 124.658 25.936C123.847 27.3227 122.738 28.4 121.33 29.168C119.943 29.9147 118.386 30.288 116.658 30.288ZM116.658 26.384C117.469 26.384 118.226 26.192 118.93 25.808C119.655 25.4027 120.231 24.8053 120.658 24.016C121.085 23.2267 121.298 22.2667 121.298 21.136C121.298 19.4507 120.85 18.16 119.954 17.264C119.079 16.3467 118.002 15.888 116.722 15.888C115.442 15.888 114.365 16.3467 113.49 17.264C112.637 18.16 112.21 19.4507 112.21 21.136C112.21 22.8213 112.626 24.1227 113.458 25.04C114.311 25.936 115.378 26.384 116.658 26.384ZM144.625 7.664C146.972 7.664 149.031 8.12267 150.801 9.04C152.593 9.95733 153.969 11.2693 154.929 12.976C155.911 14.6613 156.401 16.624 156.401 18.864C156.401 21.104 155.911 23.0667 154.929 24.752C153.969 26.416 152.593 27.7067 150.801 28.624C149.031 29.5413 146.972 30 144.625 30H136.817V7.664H144.625ZM144.465 26.192C146.812 26.192 148.625 25.552 149.905 24.272C151.185 22.992 151.825 21.1893 151.825 18.864C151.825 16.5387 151.185 14.7253 149.905 13.424C148.625 12.1013 146.812 11.44 144.465 11.44H141.297V26.192H144.465ZM158.603 21.072C158.603 19.28 158.955 17.6907 159.659 16.304C160.384 14.9173 161.355 13.8507 162.571 13.104C163.808 12.3573 165.184 11.984 166.699 11.984C168.022 11.984 169.174 12.2507 170.155 12.784C171.158 13.3173 171.958 13.9893 172.555 14.8V12.272H177.067V30H172.555V27.408C171.979 28.24 171.179 28.9333 170.155 29.488C169.152 30.0213 167.99 30.288 166.667 30.288C165.174 30.288 163.808 29.904 162.571 29.136C161.355 28.368 160.384 27.2907 159.659 25.904C158.955 24.496 158.603 22.8853 158.603 21.072ZM172.555 21.136C172.555 20.048 172.342 19.12 171.915 18.352C171.488 17.5627 170.912 16.9653 170.187 16.56C169.462 16.1333 168.683 15.92 167.851 15.92C167.019 15.92 166.251 16.1227 165.547 16.528C164.843 16.9333 164.267 17.5307 163.819 18.32C163.392 19.088 163.179 20.0053 163.179 21.072C163.179 22.1387 163.392 23.0773 163.819 23.888C164.267 24.6773 164.843 25.2853 165.547 25.712C166.272 26.1387 167.04 26.352 167.851 26.352C168.683 26.352 169.462 26.1493 170.187 25.744C170.912 25.3173 171.488 24.72 171.915 23.952C172.342 23.1627 172.555 22.224 172.555 21.136ZM198.402 12.272L187.426 38.384H182.658L186.498 29.552L179.394 12.272H184.418L188.994 24.656L193.634 12.272H198.402ZM206.609 7.28L206.097 22.736H202.321L201.777 7.28H206.609ZM204.305 30.224C203.495 30.224 202.823 29.9787 202.289 29.488C201.777 28.976 201.521 28.3467 201.521 27.6C201.521 26.8533 201.777 26.2347 202.289 25.744C202.823 25.232 203.495 24.976 204.305 24.976C205.095 24.976 205.745 25.232 206.257 25.744C206.769 26.2347 207.025 26.8533 207.025 27.6C207.025 28.3467 206.769 28.976 206.257 29.488C205.745 29.9787 205.095 30.224 204.305 30.224Z" fill="#121212"/>
</svg>
